<svg id="Layer_1" enable-background="new 0 0 512 512" height="512" viewBox="0 0 512 512" width="512" xmlns="http://www.w3.org/2000/svg"><g><g><path d="m113.883 190.256h274v239.744h-274z" fill="#5f99d7"/><path d="m31.409 203.5h449.181c12.454 0 17.662-16.696 7.617-24.419l-215.864-165.971c-9.729-7.48-22.958-7.48-32.687 0l-215.863 165.971c-10.046 7.723-4.838 24.419 7.616 24.419z" fill="#e2dee2"/><path d="m80.27 173.5 175.73-135.113 175.73 135.113z" fill="#cbc4cc"/><path d="m482 458.5h-452v-22.5c0-5.247 4.253-9.5 9.5-9.5h433c5.247 0 9.5 4.253 9.5 9.5z" fill="#e2dee2"/><path d="m472.5 426.5h-30c5.247 0 9.5 4.253 9.5 9.5v22.5h30v-22.5c0-5.247-4.253-9.5-9.5-9.5z" fill="#cbc4cc"/><path d="m504.5 504.5h-497v-36.5c0-5.247 4.253-9.5 9.5-9.5h478c5.247 0 9.5 4.253 9.5 9.5z" fill="#f3f0f3"/><path d="m495 458.5h-30c5.247 0 9.5 4.253 9.5 9.5v36.5h30v-36.5c0-5.247-4.253-9.5-9.5-9.5z" fill="#e2dee2"/><path d="m73.5 233.5h62v163h-62z" fill="#e2dee2"/><path d="m105.5 233.5h30v163h-30z" fill="#cbc4cc"/><path d="m138.5 426.5h-68c-8.284 0-15-6.716-15-15 0-8.284 6.716-15 15-15h68c8.284 0 15 6.716 15 15 0 8.284-6.716 15-15 15z" fill="#f3f0f3"/><path d="m138.5 396.5h-30c8.284 0 15 6.716 15 15s-6.716 15-15 15h30c8.284 0 15-6.716 15-15s-6.716-15-15-15z" fill="#e2dee2"/><path d="m138.5 233.5h-68c-8.284 0-15-6.716-15-15 0-8.284 6.716-15 15-15h68c8.284 0 15 6.716 15 15 0 8.284-6.716 15-15 15z" fill="#f3f0f3"/><path d="m138.5 203.5h-30c8.284 0 15 6.716 15 15s-6.716 15-15 15h30c8.284 0 15-6.716 15-15s-6.716-15-15-15z" fill="#e2dee2"/><path d="m376.5 233.5h62v163h-62z" fill="#e2dee2"/><path d="m408.5 233.5h30v163h-30z" fill="#cbc4cc"/><path d="m441.5 426.5h-68c-8.284 0-15-6.716-15-15 0-8.284 6.716-15 15-15h68c8.284 0 15 6.716 15 15 0 8.284-6.716 15-15 15z" fill="#f3f0f3"/><path d="m441.5 396.5h-30c8.284 0 15 6.716 15 15s-6.716 15-15 15h30c8.284 0 15-6.716 15-15s-6.716-15-15-15z" fill="#e2dee2"/><path d="m441.5 233.5h-68c-8.284 0-15-6.716-15-15 0-8.284 6.716-15 15-15h68c8.284 0 15 6.716 15 15 0 8.284-6.716 15-15 15z" fill="#f3f0f3"/><path d="m441.5 203.5h-30c8.284 0 15 6.716 15 15s-6.716 15-15 15h30c8.284 0 15-6.716 15-15s-6.716-15-15-15z" fill="#e2dee2"/><path d="m225 233.5h62v163h-62z" fill="#e2dee2"/><path d="m257 233.5h30v163h-30z" fill="#cbc4cc"/><path d="m290 426.5h-68c-8.284 0-15-6.716-15-15 0-8.284 6.716-15 15-15h68c8.284 0 15 6.716 15 15 0 8.284-6.716 15-15 15z" fill="#f3f0f3"/><path d="m290 396.5h-30c8.284 0 15 6.716 15 15s-6.716 15-15 15h30c8.284 0 15-6.716 15-15s-6.716-15-15-15z" fill="#e2dee2"/><path d="m290 233.5h-68c-8.284 0-15-6.716-15-15 0-8.284 6.716-15 15-15h68c8.284 0 15 6.716 15 15 0 8.284-6.716 15-15 15z" fill="#f3f0f3"/><path d="m290 203.5h-30c8.284 0 15 6.716 15 15s-6.716 15-15 15h30c8.284 0 15-6.716 15-15s-6.716-15-15-15z" fill="#e2dee2"/></g><g><g><path d="m251.429 32.487-175.73 135.1c-2.546 1.957-3.563 5.319-2.529 8.359 1.033 3.041 3.889 5.085 7.101 5.085h351.459c3.212 0 6.067-2.045 7.101-5.085s.017-6.402-2.529-8.359l-175.73-135.1c-2.696-2.072-6.448-2.072-9.143 0zm-149.1 133.546 153.671-118.141 153.671 118.142h-307.342z"/><path d="m495 451.006h-5.5v-14.999c0-9.373-7.626-16.998-17-16.998h-9.785c4.731-12.557-3.79-27.22-16.715-29.545v-148.89c12.924-2.323 21.445-16.99 16.715-29.545h17.876c19.722.062 27.758-26.208 12.188-37.861l-90.935-69.91c-3.285-2.526-7.994-1.909-10.517 1.374-2.525 3.283-1.91 7.991 1.374 10.516l90.935 69.91c2.571 1.976 2.711 4.962 1.985 7.097-.396 1.165-1.68 3.875-5.03 3.875h-449.182c-3.351 0-4.634-2.71-5.03-3.875-.726-2.135-.586-5.121 1.985-7.097l215.864-165.955c7.043-5.413 16.504-5.413 23.545 0l97.187 74.717c3.285 2.526 7.994 1.909 10.517-1.374 2.525-3.283 1.91-7.991-1.374-10.516l-97.188-74.717c-12.51-9.617-29.32-9.617-41.83 0l-215.863 165.955c-15.577 11.66-7.525 37.925 12.188 37.861h17.876c-4.731 12.557 3.791 27.22 16.715 29.545v17.345c.344 9.93 14.66 9.922 15 0v-16.893h47v147.986h-47.001v-95.934c-.344-9.93-14.66-9.922-15 0v96.386c-12.924 2.323-21.445 16.99-16.715 29.545h-9.785c-9.374 0-17 7.625-17 16.998v14.999h-5.5c-9.374 0-17 7.625-17 16.998v36.497c0 4.141 3.357 7.499 7.5 7.499h359.155c9.931-.344 9.923-14.658 0-14.999h-351.655v-28.997c0-1.103.897-2 2-2h478c1.103 0 2 .897 2 2v28.997h-94.996c-9.931.344-9.923 14.658 0 14.999h102.496c4.143 0 7.5-3.358 7.5-7.499v-36.497c0-9.373-7.626-16.998-17-16.998zm-46-39.496c0 4.135-3.364 7.499-7.5 7.499h-68c-9.929-.353-9.922-14.649 0-14.999h68c4.136 0 7.5 3.364 7.5 7.5zm-306-22.046v-148.89c12.924-2.323 21.445-16.99 16.715-29.545h41.071c-4.731 12.557 3.79 27.22 16.715 29.545v148.89c-12.924 2.323-21.445 16.99-16.715 29.545h-41.071c4.73-12.557-3.791-27.22-16.715-29.545zm136.5-.452h-47v-147.986h47zm-65 22.498c0-4.135 3.364-7.499 7.5-7.499h68c9.929.353 9.922 14.649 0 14.999h-68c-4.136-.001-7.5-3.365-7.5-7.5zm80-22.046v-148.89c12.924-2.323 21.445-16.99 16.715-29.545h41.071c-4.731 12.557 3.79 27.22 16.715 29.545v148.89c-12.924 2.323-21.445 16.99-16.715 29.545h-41.071c4.73-12.557-3.791-27.22-16.715-29.545zm136.5-.452h-47v-147.986h47zm10.5-177.983c9.929.353 9.922 14.649 0 14.999h-68c-9.929-.353-9.922-14.649 0-14.999zm-151.5 0c9.929.353 9.922 14.649 0 14.999h-68c-9.929-.353-9.922-14.649 0-14.999zm-219.5 14.998c-9.929-.353-9.922-14.649 0-14.999h68c9.929.353 9.922 14.649 0 14.999zm-7.5 185.483c0-4.135 3.364-7.499 7.5-7.499h68c9.929.353 9.922 14.649 0 14.999h-68c-4.136-.001-7.5-3.365-7.5-7.5zm-25.5 39.496v-14.999c0-1.102.897-2 2-2h433c1.103 0 2 .897 2 2v14.999z"/></g></g></g></svg>