<svg id="Capa_1" enable-background="new 0 0 512 512" height="512" viewBox="0 0 512 512" width="512" xmlns="http://www.w3.org/2000/svg"><g><g><g><path d="m342.962 102.545c-61.919 0-112.114 50.195-112.114 112.113v118.684h224.227v-118.683c.001-61.919-50.194-112.114-112.113-112.114z" fill="#ffe07d"/><path d="m379.757 108.735c-43.852 15.227-77.805 56.893-77.805 105.923v118.68h-71.103v-118.68c0-61.917 50.194-112.111 112.111-112.111 12.887 0 25.275 2.174 36.797 6.188z" fill="#ffd064"/><path d="m462.91 440.289v64.211h-238.654v-64.211c0-30.45 13.95-57.63 35.825-75.501 16.79-13.729 38.263-21.972 61.648-21.972h43.708c23.385 0 44.858 8.243 61.648 21.985 21.875 17.858 35.825 45.038 35.825 75.488z" fill="#b1e4f9"/><path d="m365.728 342.816c-23.274.069-44.65 8.298-61.371 21.972-21.875 17.871-35.825 45.052-35.825 75.502v64.21h-44.276v-64.211c0-30.45 13.95-57.63 35.825-75.502 16.79-13.729 38.263-21.972 61.648-21.972h43.999z" fill="#90d8f9"/><path d="m301.099 364.79-11.206 11.206-.579.579c-8.719 8.719-8.719 22.852 0 31.572s22.852 8.719 31.572 0l.38-.38v4.684c0 12.325 9.988 22.323 22.323 22.323 12.325 0 22.313-9.998 22.313-22.323v-4.684l.38.38c8.719 8.719 22.852 8.719 31.571 0 4.365-4.355 6.542-10.068 6.542-15.781s-2.177-11.426-6.542-15.791l-.569-.569-11.216-11.216" fill="#f9f6f9"/><g><path d="m425.676 226.971v68.187c0 38.375-25.82 71.219-61.175 80.872-6.668 1.824-13.68 2.831-20.917 2.878-45.967.344-83.336-36.824-83.336-82.708v-22.93c0-24.541 19.081-44.617 43.22-46.192 1.019-.071 2.049-.107 3.08-.107h7.438c27.277 0 50.658-16.688 60.488-40.401 2.286 9.629 7.225 18.216 13.988 24.991 9.522 9.523 22.681 15.41 37.214 15.41z" fill="#ffddce"/><path d="m363.719 376.232c-6.431 1.694-13.182 2.629-20.135 2.677-45.967.344-83.336-36.824-83.336-82.708v-22.93c0-24.02 18.287-43.764 41.703-46.074v69.003c.001 38.435 26.224 70.758 61.768 80.032z" fill="#ffcbbe"/></g></g><path d="m251.168 7.503h-157c-24.898 0-45.082 20.184-45.082 45.082v112.692c0 24.898 20.184 45.082 45.082 45.082h18.524l32.971 32.971c7.434 7.434 20.144 2.169 20.144-8.344v-24.627h85.361c24.898 0 45.082-20.184 45.082-45.082v-112.692c0-24.898-20.184-45.082-45.082-45.082z" fill="#f9f6f9"/><path d="m78.778 52.59v112.689c0 24.9 20.19 45.08 45.09 45.08h-29.7c-24.9 0-45.08-20.18-45.08-45.08v-112.689c0-24.9 20.18-45.09 45.08-45.09h29.7c-24.9 0-45.09 20.19-45.09 45.09z" fill="#dddaec"/></g><g><path d="m468.675 421.21c-.751-4.073-4.666-6.769-8.735-6.016-4.073.751-6.767 4.662-6.016 8.735.986 5.349 1.486 10.856 1.486 16.37v56.701h-104.326v-55.687c10.227-2.66 18.337-10.621 21.201-20.765 3.104 1.074 6.4 1.633 9.782 1.633 7.966 0 15.456-3.102 21.082-8.728 5.641-5.626 8.748-13.114 8.748-21.083 0-7.955-3.102-15.445-8.744-21.103l-4.419-4.419c2.635-2.104 5.142-4.354 7.521-6.729 16.305 8.322 29.897 21.595 38.563 37.791 1.351 2.526 3.941 3.963 6.619 3.963 1.194 0 2.406-.286 3.532-.889 3.652-1.954 5.029-6.499 3.075-10.151-9.551-17.852-24.231-32.67-41.87-42.438 1.731-2.435 3.345-4.954 4.834-7.553h34.068c4.142 0 7.5-3.358 7.5-7.5v-118.68c0-65.953-53.657-119.609-119.609-119.609-13.522 0-26.664 2.217-39.216 6.583v-49.056c-.001-28.993-23.588-52.58-52.581-52.58h-157c-28.993 0-52.58 23.587-52.58 52.58v75.53c0 4.142 3.358 7.5 7.5 7.5s7.5-3.358 7.5-7.5v-75.53c0-20.722 16.858-37.58 37.58-37.58h157c20.722 0 37.58 16.858 37.58 37.58v112.7c0 20.722-16.858 37.58-37.58 37.58h-85.36c-4.142 0-7.5 3.358-7.5 7.5v24.63c0 2.588-1.854 3.636-2.65 3.966-.799.332-2.859.905-4.696-.93l-32.97-32.97c-1.406-1.407-3.314-2.197-5.303-2.197h-18.521c-20.722 0-37.58-16.858-37.58-37.58v-7.17c0-4.142-3.358-7.5-7.5-7.5s-7.5 3.358-7.5 7.5v7.17c0 28.993 23.587 52.58 52.58 52.58h15.414l30.777 30.777c3.704 3.698 8.617 5.658 13.629 5.657 2.493 0 5.011-.485 7.416-1.482 7.232-2.999 11.905-9.994 11.905-17.822v-17.13h50.036v115.481c0 4.142 3.358 7.5 7.5 7.5h33.704c1.61 2.818 3.374 5.557 5.295 8.203-32.548 18.518-53.096 53.315-53.096 91.256v64.2c0 4.142 3.358 7.5 7.5 7.5h238.66c4.142 0 7.5-3.358 7.5-7.5v-64.2c0-6.423-.583-12.845-1.735-19.089zm-76.133-39.342c2.808 2.816 4.355 6.546 4.355 10.501s-1.542 7.671-4.348 10.47c-2.8 2.8-6.522 4.342-10.482 4.342s-7.682-1.542-10.485-4.345l-.38-.38c-2.146-2.143-5.371-2.782-8.172-1.622-2.801 1.162-4.627 3.896-4.627 6.928v4.691c0 8.17-6.647 14.818-14.817 14.818s-14.818-6.647-14.818-14.818v-4.691c0-3.034-1.827-5.768-4.63-6.929-2.801-1.16-6.028-.52-8.173 1.626l-.38.38c-2.8 2.8-6.522 4.342-10.482 4.342s-7.682-1.542-10.482-4.342-4.342-6.522-4.342-10.482 1.542-7.682 4.342-10.482l5.979-5.979c12.885 6.872 27.333 10.514 42.34 10.514.23 0 .464-.001.695-.002 7.719-.051 15.406-1.108 22.843-3.143 6.909-1.886 13.441-4.577 19.532-7.931zm-124.794-85.668v-22.93c0-20.381 15.904-37.383 36.24-38.71.844-.059 1.705-.088 2.56-.088h7.438c23.965 0 45.869-11.578 59.362-30.491 2.657 4.681 5.95 9.017 9.812 12.884 9.566 9.567 21.794 15.513 35.018 17.146v61.147c0 34.41-22.884 64.691-55.654 73.638-6.183 1.691-12.571 2.57-18.994 2.612-20.201.146-39.218-7.6-53.549-21.824-14.338-14.229-22.233-33.188-22.233-53.384zm-29.402 29.641v-107.981h12.824c28.993 0 52.58-23.587 52.58-52.58v-47.623c12.437-5.043 25.605-7.604 39.216-7.604 57.682 0 104.609 46.928 104.609 104.609v111.179h-19.684c3.423-9.658 5.285-20.001 5.285-30.683v-68.187c0-4.142-3.358-7.5-7.5-7.5-12.058 0-23.391-4.692-31.906-13.208-5.934-5.943-10.083-13.352-11.999-21.425-.751-3.164-3.457-5.484-6.698-5.744-3.241-.255-6.282 1.6-7.527 4.604-9.009 21.731-30.033 35.773-53.56 35.773h-7.438c-1.2 0-2.411.042-3.568.123-28.167 1.838-50.231 25.416-50.231 53.676v22.93c0 10.254 1.715 20.236 4.976 29.641zm-6.596 114.459c0-33.521 18.71-64.182 48.111-79.645 2.514 2.462 5.153 4.748 7.891 6.875l-3.739 3.739c-5.633 5.633-8.735 13.123-8.735 21.088 0 7.966 3.102 15.456 8.735 21.088 5.633 5.633 13.122 8.735 21.088 8.735 3.381 0 6.677-.559 9.781-1.633 2.864 10.144 10.975 18.105 21.202 20.765v55.688h-104.334z"/><path d="m370.48 281.936c4.142 0 7.5-3.358 7.5-7.5v-5.487c2.519-.492 5.49-1.366 8.843-2.86 3.783-1.686 5.484-6.12 3.798-9.903-1.687-3.783-6.12-5.484-9.903-3.798-4.972 2.215-8.102 2.16-8.782 2.118-2.221-.625-4.345-.114-6.212 1.271-1.907 1.415-2.744 3.725-2.744 6.099v12.561c0 4.141 3.358 7.499 7.5 7.499z"/><path d="m318.719 312.186c-2.164 3.532-1.055 8.149 2.477 10.313 6.713 4.113 14.24 6.17 21.767 6.17s15.054-2.057 21.767-6.17c3.532-2.164 4.641-6.782 2.477-10.313-2.164-3.532-6.783-4.642-10.313-2.477-8.593 5.266-19.268 5.265-27.86 0-3.534-2.164-8.151-1.055-10.315 2.477z"/><path d="m299.102 266.089c3.353 1.494 6.324 2.368 8.843 2.86v5.487c0 4.142 3.358 7.5 7.5 7.5s7.5-3.358 7.5-7.5v-12.561c0-2.375-.836-4.684-2.744-6.099-1.867-1.385-3.992-1.896-6.212-1.271-.684.045-3.81.098-8.782-2.118-3.784-1.685-8.217.015-9.903 3.798-1.686 3.784.014 8.218 3.798 9.904z"/><path d="m366.923 459.004v11.884c0 4.142 3.358 7.5 7.5 7.5s7.5-3.358 7.5-7.5v-11.884c0-4.142-3.358-7.5-7.5-7.5s-7.5 3.358-7.5 7.5z"/><path d="m312.743 451.504c-4.142 0-7.5 3.358-7.5 7.5v11.884c0 4.142 3.358 7.5 7.5 7.5s7.5-3.358 7.5-7.5v-11.884c0-4.142-3.358-7.5-7.5-7.5z"/><path d="m95.943 71.844h153.449c4.142 0 7.5-3.358 7.5-7.5s-3.358-7.5-7.5-7.5h-153.449c-4.142 0-7.5 3.358-7.5 7.5s3.358 7.5 7.5 7.5z"/><path d="m95.943 110.971h153.449c4.142 0 7.5-3.358 7.5-7.5s-3.358-7.5-7.5-7.5h-153.449c-4.142 0-7.5 3.358-7.5 7.5s3.358 7.5 7.5 7.5z"/><path d="m95.943 150.098h101.361c4.142 0 7.5-3.358 7.5-7.5s-3.358-7.5-7.5-7.5h-101.361c-4.142 0-7.5 3.358-7.5 7.5s3.358 7.5 7.5 7.5z"/></g></g></svg>